<svg width="18" height="18" viewBox="0 0 18 18" fill="none" xmlns="http://www.w3.org/2000/svg">
  <!-- Kiro Specs Dashboard icon - Ghost outline with dashboard chart -->
  <!-- Designed for VSCode activity bar (18x18, centered and maximized) -->
  
  <!-- Ghost body outline with wavy bottom -->
  <path d="M9 1.5C6.5 1.5 4.5 3.5 4.5 6V14C4.5 14 5.2 13.2 6 13.2C6.8 13.2 7.5 14 7.5 14C7.5 14 8.2 13.2 9 13.2C9.8 13.2 10.5 14 10.5 14C10.5 14 11.2 13.2 12 13.2C12.8 13.2 13.5 14 13.5 14V6C13.5 3.5 11.5 1.5 9 1.5Z" 
        fill="none" 
        stroke="currentColor" 
        stroke-width="0.9" 
        stroke-linejoin="round"/>
  
  <!-- Ghost eyes (filled, smaller) -->
  <circle cx="7" cy="6" r="0.95" fill="currentColor"/>
  <circle cx="11" cy="6" r="0.95" fill="currentColor"/>
  
  <!-- Dashboard chart overlay (outline, larger and positioned lower) -->
  <rect x="10" y="10.5" width="6.5" height="5" rx="0.4" fill="none" stroke="currentColor" stroke-width="0.7"/>
  
  <!-- Chart bars (filled) -->
  <rect x="10.8" y="13.5" width="1" height="1.6" fill="currentColor"/>
  <rect x="12.5" y="12.7" width="1" height="2.4" fill="currentColor"/>
  <rect x="14.2" y="12" width="1" height="3.1" fill="currentColor"/>
  <rect x="15.9" y="12.9" width="1" height="2.2" fill="currentColor"/>
</svg>
